<?xml version="1.0" encoding="utf-8"?>
<!-- Generator: Adobe Illustrator 19.0.0, SVG Export Plug-In . SVG Version: 6.00 Build 0)  -->
<svg version="1.1" id="Layer_1" xmlns="http://www.w3.org/2000/svg" xmlns:xlink="http://www.w3.org/1999/xlink" x="0px" y="0px"
	 viewBox="0 0 243.7 57.2" style="enable-background:new 0 0 243.7 57.2;" xml:space="preserve">
<style type="text/css">
	.st0{fill:#231F20;}
	.st1{fill-rule:evenodd;clip-rule:evenodd;fill:#231F20;}
</style>
<g>
	<path class="st0" d="M43.4,0.1l24,56.5c0,0,0,0.1,0,0.1c0,0.1-0.1,0.1-0.2,0.1L24.6,32.4v0c-0.1,0-0.1-0.1-0.1-0.2L43.1,0.1
		c0,0,0-0.1,0.1-0.1C43.2,0,43.3,0,43.4,0.1"/>
	<path class="st0" d="M1.8,41.9L39.3,1.6c0,0,0.1-0.1,0.2,0c0.1,0,0.1,0.1,0.1,0.2L22.1,32h0c0,0,0,0-0.1,0.1L2,42.1
		c-0.1,0-0.1,0-0.2,0C1.8,42,1.8,41.9,1.8,41.9"/>
	<path class="st0" d="M0.1,45.6l22.8-11.5c0,0,0.1,0,0.1,0L62.9,57c0,0,0.1,0.1,0.1,0.1c0,0.1-0.1,0.1-0.2,0.1L0.1,45.8v0
		c0,0-0.1,0-0.1-0.1C0,45.7,0,45.6,0.1,45.6"/>
	<path class="st1" d="M67,17v23.7h18.4v-4.9H72.5V14.1h-2.7C68.2,14.1,67,15.5,67,17 M147.1,21.1V20H144v-3.3c0-1.4-1.1-2.6-2.5-2.6
		h-2.7v22.5c0,2.3,0.9,3.5,2.8,3.7c2,0.2,3.8,0.2,5.5,0v-3.9h-1.6c-1,0-1.5-0.5-1.5-1.3V23.7h0.5C146,23.7,147.1,22.6,147.1,21.1
		 M131,30.1v10.6h5.1v-12c0.2-4.5-1.2-7.3-4.1-8.3c-3.9-1.4-7.1-0.5-9.8,2.5v-6.2c0-1.7-0.9-2.6-2.6-2.6h-2.6v26.5h5.2V30.1
		c0-3.2,1.3-5.7,4.4-5.7C129.7,24.3,131,26.6,131,30.1 M105.1,36.5c-2.8,0-4.2-2-4.3-6c0-4.2,1.4-6.2,4.4-6.2c3,0,4.4,2.1,4.4,6.2
		C109.4,34.5,107.9,36.5,105.1,36.5 M103.7,41c2.6,0,4.6-1,5.9-3v2.1c0,3.2-1.4,4.8-4.1,4.8c-2.1,0-3.4-0.7-3.7-2.2H96
		c1.2,4.4,4.2,6.6,8.9,6.6c6.6-0.1,9.9-2.7,9.9-7.9V29.1c0-6.2-3.2-9.2-9.7-9.2c-6.4,0.1-9.6,3.5-9.6,10.4
		C95.5,37.5,98.2,41,103.7,41 M87.7,14.1v4.1h5.2v-1.5c0-1.7-0.8-2.5-2.5-2.5H87.7z M87.7,20v20.6h5.2V22.5c0-1.7-0.8-2.5-2.5-2.5
		H87.7z"/>
	<path class="st0" d="M149.3,17v23.7h18.4v-4.9h-12.9V14.1h-2.7C150.5,14.1,149.3,15.5,149.3,17 M233.1,36.6c-3.5,0-5.3-1.4-5.5-4.2
		h-5.3c0.2,5.8,3.7,8.7,10.7,8.7c6.7,0,10.2-2.6,10.5-7.8c0.2-3.4-1.2-5.5-4.2-6.6c-2.2-0.8-4.3-1.4-6.3-1.8c-3.5-0.8-5.1-2-5.1-3.7
		c0.1-2,1.5-3.1,4.3-3.1c2.3,0,3.9,0.7,4.8,2.3c0.5,1,1.3,1.6,2.4,1.6h3c-0.3-5.5-3.5-8.2-9.8-8.2c-6.6,0-9.9,2.7-10,8.3
		c0,3.5,2.6,5.9,7.8,7.3c1.9,0.5,3.7,1,5.3,1.4c1.6,0.5,2.4,1.3,2.4,2.6C238.3,35.5,236.6,36.6,233.1,36.6 M219.5,32.6
		c0-3.5-1.5-5.2-4.1-6.2c2.1-1,3.2-2.7,3.2-5.5c0-4.7-3.3-6.7-8.3-6.7h-9.7c-1.5,0-2.7,1.3-2.7,2.8v23.7h12.1
		C215.6,40.6,219.5,38.1,219.5,32.6 M213.1,21.5c0,2.2-1.8,2.9-3.9,2.9h-6.1v-5.7h6C211.6,18.7,213.1,19.3,213.1,21.5 M213.8,32.4
		c0,2.7-1.6,3.4-4.3,3.4h-6.3v-6.9h6.2C212.2,28.9,213.8,29.7,213.8,32.4 M181.3,14.1c-1.3,0-2.2,0.6-2.6,1.8l-8.9,24.8h5.8l1.8-5.4
		h10.3l1.8,5.4h5.7l-9.5-26.5H181.3z M182.5,19.5l3.7,11.3h-7.3L182.5,19.5z"/>
</g>
</svg>
