<?xml version="1.0" encoding="utf-8"?>
<!-- Generator: Adobe Illustrator 19.0.0, SVG Export Plug-In . SVG Version: 6.00 Build 0)  -->
<svg version="1.1" id="Layer_1" xmlns="http://www.w3.org/2000/svg" xmlns:xlink="http://www.w3.org/1999/xlink" x="0px" y="0px"
	 viewBox="0 0 321.3 273.2" style="enable-background:new 0 0 321.3 273.2;" xml:space="preserve">
<style type="text/css">
	.st0{clip-path:url(#SVGID_2_);fill:#231F20;}
</style>
<g>
	<defs>
		<rect id="SVGID_1_" width="321.3" height="273.2"/>
	</defs>
	<clipPath id="SVGID_2_">
		<use xlink:href="#SVGID_1_"  style="overflow:visible;"/>
	</clipPath>
	<path class="st0" d="M206.9,0.4l114.4,269.8c0.1,0.2,0.1,0.4,0,0.6c-0.2,0.3-0.6,0.4-0.9,0.2l-203-116.3v0
		c-0.3-0.2-0.4-0.6-0.2-0.9L205.7,0.4c0.1-0.1,0.2-0.2,0.3-0.3C206.4-0.1,206.7,0.1,206.9,0.4"/>
	<path class="st0" d="M8.8,199.8L187.6,7.4l0,0c0.2-0.2,0.5-0.3,0.8-0.1c0.3,0.2,0.4,0.6,0.2,0.9l-83.3,144.3h0
		c-0.1,0.1-0.2,0.2-0.3,0.3l-95.5,48c-0.2,0.1-0.6,0.1-0.8-0.1C8.6,200.5,8.5,200.1,8.8,199.8"/>
	<path class="st0" d="M0.4,217.5l108.8-54.7c0.2-0.1,0.4-0.1,0.7,0l190.3,109.1v0c0.2,0.1,0.4,0.4,0.3,0.7c-0.1,0.4-0.4,0.6-0.8,0.5
		L0.5,218.8v0c-0.2,0-0.4-0.2-0.5-0.3C-0.1,218.1,0,217.7,0.4,217.5"/>
</g>
</svg>
